<svg width="1em" height="1em" viewBox="0 0 128 128" class="svg-logo uh-seal-partial-simplified" role="img" aria-labelledby="slusps" version="1.1" xmlns="http://www.w3.org/2000/svg" style="margin-bottom:-0.15em;"><title id="slusps">University of Hawaiʻi at Hilo</title><path fill="#b3995d" d="M77.8 23.5C76.4 20.2 78 15.9 78 15.9 70.9 17.6 69.5 21.7 67.4 22.1 65.8 22.5 66.2 18.4 66.2 18.4 66.2 18.4 56.2 23.5 52.7 31.5 49.8 38.6 52.5 42.3 52.5 42.3L56.2 42.3C55.9 30.7 64.1 26.2 69.3 23.3 70.5 22.7 71.7 21.9 72.7 21.3L74.6 20 74.2 22.3C74.2 22.3 73.8 25.3 74.4 27.8 74.6 28.6 74.8 29.4 75.2 30 75.8 31.5 76.6 33.3 75.8 36 75.2 38.4 73.3 40.7 71.7 42.3L74.2 42.3C74.2 42.3 77 41.1 79.1 36.2 81.3 30.2 79.1 27.6 77.8 23.5L77.8 23.5zM73.8 35.6C74 34.8 74 34.3 74 33.9 74 32.7 73.7 31.9 73.3 30.9 73.1 30.2 72.7 29.4 72.5 28.6 72.3 27.4 72.1 26.2 72.1 25.1L72.1 24.3C71.5 24.7 70.9 24.9 70.3 25.3 65 28 58.2 31.9 58.2 41.9L58.2 42.7 68.6 42.7C69.2 41.9 73.1 38.8 73.8 35.6L73.8 35.6zM69.3 65.4L70.3 54.4C69 55 67.2 55.6 65.4 55.6L64.5 73.8C64.5 74 64.3 74 64.3 74L64.3 74 64.3 74C64.1 74 64.1 73.8 64.1 73.8L63.1 55.6C61.1 55.4 59.6 55 58.2 54.4L59.2 65.4 24.2 50.9C25.1 53.6 38.1 87.5 38.2 88.1L60.5 97.8 61.1 89.2C61.1 89.2 61.1 89 61.3 89 61.3 89 61.5 89 61.5 89.2L62.3 98.6 63.1 107.6C63.1 108.4 63.9 109 64.7 109 65.4 109 66.2 108.4 66.2 107.6L67 98.6 67.8 89.2C67.8 89.2 67.8 89 68 89 68.2 89 68.2 89 68.2 89.2L68.8 97.8 91.1 88.1C91.3 87.5 104 53.6 105.1 50.9L69.3 65.4 69.3 65.4zM42.2 46.8C45.9 49.1 52.1 54.6 55.5 57.9 47.4 44 41.6 40.9 39.8 40.5L42.2 46.8 42.2 46.8zM56.2 61.8C43.1 48.9 34.7 44.8 30.6 44L33.7 52.1 56.2 61.8 56.2 61.8zM76.8 43.8L51.5 43.8C51 43.8 50.6 44.2 50.6 44.8 50.6 45.4 51 45.8 51.5 45.8L76.8 45.8C77.4 45.8 77.8 45.4 77.8 44.8 77.8 44.2 77.4 43.8 76.8 43.8L76.8 43.8zM52.9 47.6C54.1 50.3 58 54 64.3 54 70.5 54 74.2 50.3 75.6 47.6L52.9 47.6 52.9 47.6zM88.5 40.5C87 40.9 80.9 44 72.9 57.9 76.2 54.6 82.5 49.1 86.2 46.8L88.5 40.5 88.5 40.5zM94.6 52.3L97.7 44.2C93.6 45 85.2 48.9 72.1 62L94.6 52.3 94.6 52.3zM53.3 79.3C53.3 78.9 53.7 77.9 53.7 77.7 53.9 78.1 54.5 79.7 54.7 80L53.3 79.3 53.3 79.3zM56.8 82.6C56.4 81.8 53.9 76.3 53.3 75.2L53.3 75.2C52.9 76.3 51.9 79.7 51.7 80.2L52.9 81.6C53.1 81.2 53.3 80.2 53.3 80L55.5 81C55.5 81.2 56 82.6 56.2 83L56.8 82.6 56.8 82.6zM43.9 75.5C43.9 75.2 44.1 74.2 44.1 74 44.3 74.4 45.1 75.7 45.3 76.1L43.9 75.5 43.9 75.5zM47.6 78.7C47.2 77.9 44.3 73 43.5 72L43.5 72C43.1 73.2 42.6 76.3 42.4 76.9L43.5 78.1C43.5 77.7 43.7 76.7 43.7 76.7L45.9 77.5C46.1 77.7 46.7 78.9 46.9 79.3L47.6 78.7 47.6 78.7zM41.8 76.5C41.6 76.1 38.4 70.1 37.9 69.1L37.9 69.1C37.9 69.9 37.7 72.2 37.7 72.6 37.3 72 35.3 68.5 34.7 67.9L34.7 67.9C34.7 68.9 34.9 73.2 34.9 73.8L36.1 75C36.1 74.2 35.9 71.4 35.9 71.2 36.1 71.6 37.9 74.4 38.4 75.3L38.4 75.3C38.4 74.4 38.6 72.6 38.6 72.4L38.6 72.4C38.8 73 40.6 76.5 40.8 76.9L41.8 76.5 41.8 76.5zM77.6 78.1C77.8 77.7 78.3 76.1 78.7 75.7 78.7 75.9 78.9 77.1 79.1 77.3L77.6 78.1 77.6 78.1zM76 81.2C76.2 80.8 76.8 79.5 76.8 79.3L78.9 78.3C78.9 78.5 79.3 79.5 79.3 79.8L80.5 78.7C80.3 78.1 79.3 74.8 78.9 73.6L78.9 73.6C78.3 74.8 75.6 80 75.2 80.8L76 81.2 76 81.2zM91.1 72.6C91.3 72.2 92.2 70.7 92.4 70.3L92.4 72 91.1 72.6 91.1 72.6zM89.1 75.9C89.3 75.5 90.1 74.2 90.3 74L92.4 73 92.4 74.6 93.8 73.2C93.6 72.6 93.4 69.1 93.2 67.7L93.2 67.7C92.4 68.9 88.9 74.6 88.5 75.5L89.1 75.9 89.1 75.9zM82.1 78.9C82.3 78.5 83.8 75 84 74.4L84 74.4C84 74.8 84.2 76.3 84.4 77.3L84.4 77.3C85 76.3 86.6 73.6 86.8 73.2L86.8 76.9 87.9 75.9C87.9 75.3 87.9 71.2 87.7 70.3L87.7 70.3C87.3 71 85.6 74.2 85 75 85 74.6 84.6 72.2 84.6 71.4L84.6 71.4C84.2 72.4 81.3 78.5 81.1 78.9L82.1 78.9 82.1 78.9zM74.6 80.6C74 80.8 73.3 81.2 73.1 81.2L73.3 79.3C73.5 78.1 73.7 76.3 73.8 76.1L72.7 76.5C72.7 76.7 72.3 78.9 72.3 79.1L72.1 80.2C72.1 80.4 71.7 82.4 71.7 83 72.1 82.8 74.2 82 74.2 82L74.6 80.6 74.6 80.6zM67.6 81.2C67.8 80.8 68.2 79.7 68.4 79.3 68.6 79.5 69 80.8 69.2 81.2L67.6 81.2 67.6 81.2zM66.6 84C66.8 83.6 67.2 82.4 67.2 82.4L69.5 82.2C69.5 82.4 69.9 83.4 70.1 83.8L71.3 83C70.9 82.2 69.2 78.5 68.4 77.1L68.4 77.1C68 78.1 65.8 82.8 65.6 83.4L66.6 84 66.6 84zM58.4 83.6C58.6 83.2 59.2 80.4 59.4 80L59.4 80C59.6 80.4 60.3 82.2 60.7 83.4L60.7 83.4C61.1 82.6 62.3 80.4 62.5 80 62.5 80.2 63.5 83.2 63.7 84L64.8 83.4C64.7 82.6 63.3 78.5 62.9 77.3L62.9 77.3C62.7 77.9 61.3 80.4 61.1 81 60.9 80.6 59.8 77.9 59.4 77.1L59.4 77.1C59.2 77.9 57.6 82.6 57.6 83L58.4 83.6 58.4 83.6zM50.8 79.5C50.2 79.3 49.8 79.1 49.6 78.9L49.2 76.7C49 75.5 48.6 73.8 48.6 73.6L47.2 73C47.2 73.2 47.6 75.3 47.8 75.5L48 76.7C48 76.9 48.4 79.1 48.4 79.5 48.8 79.7 50.8 80.6 51 80.6L50.8 79.5 50.8 79.5zM42 70.7L44.9 71.8 44.7 70.7 41.8 69.5 42 70.7 42 70.7zM126.9 64C126.9 98.8 98.7 127 64.1 127 29.4 127 1.3 98.8 1.3 64 1.3 29.2 29.4 1 64.1 1 98.9 1 126.9 29.2 126.9 64L126.9 64zM105.3 125.4L105.1 122.8 105.1 122 105.1 122C105 122.3 105 122.6 104.8 122.8L103.8 125.2 103.4 125.2 102.3 122.8C102.2 122.6 102.2 122.3 102 122L102 122 102 122.8 101.9 125.4 101.4 125.4 101.7 121.8 102.2 121.8 103.2 124.2C103.4 124.5 103.4 124.6 103.5 125.1L103.5 125.1C103.7 124.8 103.7 124.5 103.8 124.2L104.8 121.8 105.3 121.8 105.6 125.4 105.3 125.4 105.3 125.4zM101.4 121.7L101.4 122 100.1 122 100.1 125.2 99.7 125.2 99.7 122 98.3 122 98.3 121.7 101.4 121.7 101.4 121.7z"></path></svg>
